<svg width="605" height="111" viewBox="0 0 605 111" fill="none" xmlns="http://www.w3.org/2000/svg">
<path d="M168.554 47.5367H156.655V69.5592C156.655 71.396 157.111 72.7361 158.025 73.5795C158.938 74.4229 160.27 74.9008 162.022 75.0133C163.774 75.1164 165.955 75.107 168.554 74.957V87.3459C159.217 88.4048 152.638 87.5239 148.809 84.6938C144.979 81.8731 143.068 76.8219 143.068 69.5498V47.5273H133.908V34.3981H143.068V23.7055L156.655 19.5728V34.3981H168.554V47.5367Z" fill="#624EC4"/>
<path d="M220.74 80.7312C215.335 86.1291 208.738 88.828 200.948 88.828C193.157 88.828 186.578 86.1291 181.202 80.7312C175.834 75.3334 173.15 68.7173 173.15 60.8735C173.15 53.0297 175.834 46.423 181.202 41.0157C186.569 35.6179 193.157 32.9189 200.948 32.9189C208.738 32.9189 215.335 35.6179 220.74 41.0157C226.145 46.4136 228.847 53.0391 228.847 60.8735C228.847 68.7079 226.145 75.3334 220.74 80.7312ZM190.79 71.36C193.493 74.1151 196.875 75.4927 200.948 75.4927C205.02 75.4927 208.421 74.1151 211.161 71.36C213.9 68.6048 215.27 65.1093 215.27 60.8735C215.27 56.6377 213.9 53.1422 211.161 50.387C208.421 47.6319 205.02 46.2543 200.948 46.2543C196.875 46.2543 193.483 47.6319 190.79 50.387C188.088 53.1422 186.737 56.6377 186.737 60.8735C186.737 65.1093 188.088 68.6048 190.79 71.36Z" fill="#624EC4"/>
<path d="M273.621 34.3984H288.148L268.952 87.4305C266.212 94.9932 262.588 100.485 258.068 103.915C253.549 107.345 247.92 108.881 241.192 108.525V95.8178C244.845 95.8834 247.734 95.115 249.877 93.4844C252.02 91.8632 253.716 89.2486 254.984 85.65L233.393 34.3984H248.237L261.963 69.9812L273.621 34.3984Z" fill="#624EC4"/>
<path d="M332.971 34.3984H347.498L328.302 87.4305C325.562 94.9932 321.938 100.485 317.418 103.915C312.899 107.345 307.27 108.881 300.542 108.525V95.8178C304.195 95.8834 307.084 95.115 309.227 93.4844C311.37 91.8632 313.066 89.2486 314.334 85.65L292.752 34.3984H307.596L321.323 69.9812L332.971 34.3984Z" fill="#624EC4"/>
<path d="M359.079 28.0546C356.833 28.0546 354.886 27.2205 353.237 25.5618C351.587 23.9031 350.758 21.9445 350.758 19.686C350.758 17.4275 351.578 15.4502 353.237 13.754C354.886 12.0578 356.833 11.2144 359.079 11.2144C361.4 11.2144 363.375 12.0578 365.024 13.754C366.674 15.4502 367.503 17.4275 367.503 19.686C367.503 21.9445 366.674 23.9031 365.024 25.5618C363.384 27.2205 361.4 28.0546 359.079 28.0546ZM352.342 87.3467V34.3989H365.928V87.3467H352.342Z" fill="#624EC4"/>
<path d="M401.164 32.9177C408.256 32.9177 414.313 35.6166 419.326 41.0145C424.349 46.4123 426.856 53.0378 426.856 60.8722C426.856 68.7066 424.349 75.3227 419.326 80.73C414.303 86.1278 408.256 88.8268 401.164 88.8268C393.793 88.8268 388.109 86.2497 384.102 81.0955V87.3461H370.516V13.2192H384.102V40.649C388.109 35.4948 393.793 32.9177 401.164 32.9177ZM388.221 71.6211C390.96 74.4137 394.436 75.8007 398.648 75.8007C402.86 75.8007 406.355 74.4044 409.122 71.6211C411.89 68.8284 413.278 65.2486 413.278 60.8722C413.278 56.4958 411.89 52.916 409.122 50.1234C406.345 47.3401 402.86 45.9438 398.648 45.9438C394.436 45.9438 390.96 47.3401 388.221 50.1234C385.481 52.916 384.111 56.4958 384.111 60.8722C384.111 65.258 385.481 68.8378 388.221 71.6211Z" fill="#624EC4"/>
<path d="M459.062 13.2286C466.154 13.2286 472.118 15.6277 476.963 20.4258C481.809 25.2239 484.232 31.1184 484.232 38.1094C484.232 45.1004 481.809 50.9949 476.963 55.793C472.118 60.5911 466.154 62.9901 459.062 62.9901H446.11V87.3461H431.582V13.2192H459.062V13.2286ZM459.062 49.3362C462.147 49.3362 464.709 48.2585 466.75 46.1031C468.782 43.9477 469.807 41.2862 469.807 38.1094C469.807 34.8669 468.791 32.1774 466.75 30.0594C464.709 27.9415 462.156 26.8826 459.062 26.8826H446.11V49.3362H459.062V49.3362Z" fill="#624EC4"/>
<path d="M531.576 34.3996H545.162V87.3474H531.576V81.0967C527.503 86.2509 521.782 88.828 514.411 88.828C507.394 88.828 501.374 86.1291 496.352 80.7312C491.329 75.3334 488.822 68.7173 488.822 60.8735C488.822 53.0297 491.329 46.423 496.352 41.0157C501.374 35.6179 507.394 32.9189 514.411 32.9189C521.782 32.9189 527.503 35.496 531.576 40.6503V34.3996ZM506.518 71.6223C509.258 74.415 512.734 75.8019 516.946 75.8019C521.158 75.8019 524.652 74.4056 527.42 71.6223C530.187 68.8297 531.576 65.2499 531.576 60.8735C531.576 56.4971 530.187 52.9173 527.42 50.1246C524.643 47.3414 521.158 45.945 516.946 45.945C512.734 45.945 509.258 47.3414 506.518 50.1246C503.778 52.9173 502.409 56.4971 502.409 60.8735C502.409 65.2592 503.778 68.8391 506.518 71.6223Z" fill="#624EC4"/>
<path d="M589.973 34.3984H604.5L585.304 87.4305C582.564 94.9932 578.939 100.485 574.42 103.915C569.901 107.345 564.272 108.881 557.544 108.525V95.8178C561.197 95.8834 564.086 95.115 566.229 93.4844C568.372 91.8632 570.068 89.2486 571.336 85.65L549.754 34.3984H564.598L578.324 69.9812L589.973 34.3984Z" fill="#624EC4"/>
<path d="M56.993 22.9561H39.9494C38.9243 22.9561 38.0298 23.6495 37.7595 24.6429L15.5442 108.01C15.1621 109.453 16.243 110.877 17.734 110.877H34.7776C35.8026 110.877 36.6972 110.184 36.9675 109.191L59.1828 25.8237C59.5649 24.3805 58.4746 22.9561 56.993 22.9561Z" fill="#624EC4"/>
<path d="M24.9446 44.8101H7.90097C6.87593 44.8101 5.98135 45.5035 5.71111 46.4969L0.967982 64.3117C0.585922 65.7549 1.66687 67.1793 3.15784 67.1793H20.2014C21.2265 67.1793 22.121 66.4859 22.3913 65.4925L27.1344 47.6777C27.5165 46.2251 26.4355 44.8101 24.9446 44.8101Z" fill="#624EC4"/>
<path d="M89.1009 0.849121H72.0573C71.0322 0.849121 70.1376 1.5426 69.8674 2.53595L47.6613 85.9029C47.2793 87.3461 48.3602 88.7705 49.8512 88.7705H66.8948C67.9198 88.7705 68.8144 88.077 69.0846 87.0837L91.2814 3.71673C91.6728 2.26419 90.5918 0.849121 89.1009 0.849121Z" fill="#FC9026"/>
<path d="M112.343 12.0288H95.2994C94.2744 12.0288 93.3798 12.7223 93.1095 13.7156L88.3664 31.5305C87.9844 32.9736 89.0653 34.3981 90.5563 34.3981H107.6C108.625 34.3981 109.519 33.7046 109.79 32.7112L114.533 14.8964C114.915 13.4532 113.834 12.0288 112.343 12.0288Z" fill="#FC9026"/>
</svg>
